<svg width="16" height="18" viewBox="0 0 16 18" fill="none" xmlns="http://www.w3.org/2000/svg">
<path d="M7.89253 4.10127C7.63003 4.09786 7.63003 3.68877 7.89253 3.68877C10.1698 3.70445 12.0019 5.33127 12.0237 8.13697C12.0271 8.41174 11.6248 8.41515 11.6248 8.14037C11.6064 5.5365 9.92913 4.11695 7.89253 4.10127Z" fill="#9B9B9B"/>
<path d="M10.5713 7.70881C10.5652 7.98017 10.9668 7.99313 10.9702 7.71835C11.0036 6.1713 10.0497 4.89698 8.25719 4.76266C7.99469 4.74357 7.96742 5.15607 8.22924 5.17516C9.7838 5.29312 10.6027 6.35403 10.5713 7.70881Z" fill="#9B9B9B"/>
<path d="M10.1418 9.46855C9.80494 9.27355 9.46198 9.39491 9.32017 9.58651L9.02357 9.97037C8.87289 10.1654 8.5913 10.1395 8.5913 10.1395C6.5363 9.59605 5.98675 7.44559 5.98675 7.44559C5.98675 7.44559 5.96152 7.15445 6.1497 6.99832L6.52061 6.6915C6.70607 6.54422 6.82334 6.18968 6.63448 5.84127C6.25404 5.15391 5.9678 4.80613 5.77605 4.57315C5.7135 4.49715 5.661 4.43336 5.61857 4.37399C5.4372 4.14694 5.16447 4.09581 4.88084 4.24922H4.8747C4.28493 4.59422 3.63924 5.2399 3.84584 5.90468C3.90696 6.02621 3.97696 6.19386 4.06169 6.39677C4.46557 7.36404 5.20406 9.13265 6.91062 10.5281C7.88084 11.3265 9.4163 12.1447 10.0681 12.3336L10.0743 12.3431C10.7165 12.5572 11.3411 11.8863 11.6745 11.2788V11.274C11.8224 10.9801 11.7734 10.702 11.5572 10.5199C11.174 10.1463 10.5959 9.73378 10.1418 9.46855Z" fill="#9B9B9B"/>
<path d="M9.5451 7.36787C9.51101 6.66491 9.19328 6.32264 8.53805 6.28446C8.27282 6.26877 8.29736 5.85627 8.55986 5.87195C9.42169 5.91968 9.90033 6.43105 9.94397 7.34878C9.95624 7.62356 9.55737 7.64265 9.5451 7.36787Z" fill="#9B9B9B"/>
<path fill-rule="evenodd" clip-rule="evenodd" d="M15.3468 10.2315C15.835 6.1222 15.1122 3.52788 13.8086 2.35447L13.8093 2.35378C11.7052 0.349913 4.59924 0.0533214 2.08196 2.44378C0.951499 3.61311 0.553316 5.32925 0.50968 7.4538C0.466043 9.57903 0.414225 13.5602 4.12401 14.6402H4.12742L4.12401 16.2895C4.12401 16.2895 4.09878 16.9577 4.5256 17.092C4.98532 17.241 5.20803 16.9746 6.50044 15.4284C6.58046 15.3327 6.66458 15.2321 6.75311 15.1263C9.29221 15.3466 11.2422 14.842 11.4638 14.7684C11.5095 14.753 11.5742 14.736 11.6545 14.7149C12.475 14.4994 14.9196 13.8571 15.3468 10.2315ZM7.00334 13.9659C7.00334 13.9659 5.39629 15.9697 4.89651 16.49C4.73288 16.6591 4.55356 16.6434 4.55628 16.3079C4.55628 16.0877 4.56856 13.5697 4.56856 13.5697C1.53141 12.6993 1.59996 9.50842 1.63896 7.69333C1.64034 7.62875 1.64169 7.56587 1.64287 7.50494C1.67696 5.73084 2.0015 4.27788 2.95878 3.29947C5.1672 1.22878 11.397 1.69174 12.9843 3.18356C14.7505 4.74935 14.3369 8.91648 14.2514 9.77703L14.2513 9.77777C14.243 9.86217 14.2378 9.91466 14.2381 9.92949C13.879 12.9217 11.9373 13.3905 11.2385 13.5592C11.1612 13.5779 11.0991 13.5929 11.0561 13.6072C10.8713 13.6686 9.15653 14.1097 7.00334 13.9659Z" fill="#9B9B9B"/>
</svg>
