<svg width="16" height="16" viewBox="0 0 16 16" fill="none" xmlns="http://www.w3.org/2000/svg">
<path d="M7.90451 3.64553C7.67118 3.6425 7.67118 3.27887 7.90451 3.27887C9.92876 3.2928 11.5573 4.73887 11.5766 7.23282C11.5797 7.47706 11.2221 7.48009 11.2221 7.23585C11.2057 4.9213 9.71482 3.65947 7.90451 3.64553Z" fill="#0780AF"/>
<path d="M10.2856 6.85223C10.2802 7.09345 10.6372 7.10496 10.6402 6.86072C10.6699 5.48556 9.822 4.35283 8.22866 4.23344C7.99532 4.21647 7.97108 4.58314 8.20381 4.60011C9.58564 4.70495 10.3135 5.64799 10.2856 6.85223Z" fill="#0780AF"/>
<path d="M9.90383 8.41645C9.60443 8.24312 9.29958 8.351 9.17352 8.5213L8.90988 8.86251C8.77595 9.03585 8.52564 9.01282 8.52564 9.01282C6.69897 8.52978 6.21048 6.61826 6.21048 6.61826C6.21048 6.61826 6.18806 6.35947 6.35533 6.22069L6.68503 5.94796C6.84988 5.81705 6.95412 5.50189 6.78624 5.1922C6.44808 4.58121 6.19364 4.27207 6.0232 4.06498C5.9676 3.99743 5.92093 3.94072 5.88321 3.88795C5.722 3.68613 5.47957 3.64068 5.22745 3.77704H5.222C4.69775 4.08371 4.12381 4.65765 4.30745 5.24856C4.36178 5.35659 4.42401 5.50561 4.49932 5.68598C4.85833 6.54577 5.51476 8.11787 7.0317 9.35827C7.89413 10.068 9.25898 10.7952 9.83837 10.9631L9.84383 10.9716C10.4147 11.1619 10.9699 10.5655 11.2663 10.0255V10.0213C11.3978 9.76009 11.3541 9.51282 11.162 9.351C10.8214 9.01888 10.3075 8.65221 9.90383 8.41645Z" fill="#0780AF"/>
<path d="M9.37346 6.54918C9.34316 5.92433 9.06073 5.62008 8.4783 5.58614C8.24254 5.5722 8.26436 5.20553 8.4977 5.21947C9.26377 5.2619 9.68922 5.71645 9.72801 6.53221C9.73892 6.77645 9.38437 6.79342 9.37346 6.54918Z" fill="#0780AF"/>
<path fill-rule="evenodd" clip-rule="evenodd" d="M14.5305 9.09466C14.9644 5.44192 14.322 3.13585 13.1632 2.09282L13.1638 2.09221C11.2935 0.310993 4.97714 0.0473561 2.73956 2.17221C1.73471 3.21161 1.38077 4.73707 1.34198 6.62556C1.30319 8.51466 1.25713 12.0535 4.55472 13.0135H4.55775L4.55472 14.4795C4.55472 14.4795 4.53229 15.0735 4.91169 15.1929C5.32033 15.3253 5.51829 15.0885 6.6671 13.7141C6.73823 13.629 6.813 13.5396 6.89169 13.4456C9.14867 13.6413 10.882 13.1929 11.079 13.1274C11.1196 13.1138 11.1771 13.0987 11.2485 13.0799C11.9778 12.8883 14.1508 12.3174 14.5305 9.09466ZM7.11412 12.4141C7.11412 12.4141 5.68563 14.1953 5.24139 14.6577C5.09593 14.808 4.93654 14.7941 4.93896 14.4959C4.93896 14.3001 4.94987 12.0619 4.94987 12.0619C2.25018 11.2883 2.31112 8.45188 2.34578 6.83848C2.34701 6.78107 2.34821 6.72517 2.34925 6.67101C2.37956 5.09404 2.66804 3.80252 3.51896 2.93282C5.48199 1.09221 11.0196 1.50372 12.4305 2.82979C14.0005 4.22161 13.6328 7.92572 13.5569 8.69065L13.5568 8.69131C13.5494 8.76634 13.5447 8.81299 13.5451 8.82617C13.2258 11.4859 11.4999 11.9026 10.8787 12.0526C10.81 12.0692 10.7548 12.0825 10.7166 12.0953C10.5523 12.1498 9.02807 12.5419 7.11412 12.4141Z" fill="#0780AF"/>
</svg>
