<svg width="101" height="100" viewBox="0 0 101 100" fill="none" xmlns="http://www.w3.org/2000/svg">
<path d="M50.6664 16.6667H21.4998C14.5831 16.6667 8.99976 22.2501 8.99976 29.1667V62.5C8.99976 69.4167 14.5831 75 21.4998 75L17.3331 79.1667V83.3334H21.4998L29.8331 75H38.1664V54.1667H17.3331V25H54.8331V33.3334H63.1664V29.1667C63.1664 22.2501 57.5831 16.6667 50.6664 16.6667ZM21.4998 58.3334C23.7914 58.3334 25.6664 60.2084 25.6664 62.5C25.6664 64.7917 23.7914 66.6667 21.4998 66.6667C19.2081 66.6667 17.3331 64.7917 17.3331 62.5C17.3331 60.2084 19.2081 58.3334 21.4998 58.3334ZM86.3747 40.25C85.7914 38.5834 84.2081 37.5 82.3331 37.5H52.3748C50.4581 37.5 48.9164 38.5834 48.2914 40.25L42.3748 57.375V80.3334C42.3748 81.9167 43.6664 83.3334 45.2498 83.3334H47.8331C49.4164 83.3334 50.6664 81.75 50.6664 80.1667V75H83.9998V80.1667C83.9998 81.75 85.2914 83.3334 86.8748 83.3334H89.4164C90.9997 83.3334 92.2914 81.9167 92.2914 80.3334L92.3331 74.625V57.375L86.3747 40.25ZM52.3748 41.6667H82.3331L86.6247 54.1667H48.0831L52.3748 41.6667ZM50.6664 66.6667C48.3748 66.6667 46.4998 64.7917 46.4998 62.5C46.4998 60.2084 48.3748 58.3334 50.6664 58.3334C52.9581 58.3334 54.8331 60.2084 54.8331 62.5C54.8331 64.7917 52.9581 66.6667 50.6664 66.6667ZM83.9998 66.6667C81.7081 66.6667 79.8331 64.7917 79.8331 62.5C79.8331 60.2084 81.7081 58.3334 83.9998 58.3334C86.2914 58.3334 88.1664 60.2084 88.1664 62.5C88.1664 64.7917 86.2914 66.6667 83.9998 66.6667Z" fill="#0780AF"/>
</svg>
