<svg width="16" height="16" viewBox="0 0 16 16" fill="none" xmlns="http://www.w3.org/2000/svg">
<path d="M8.00146 14.0274C6.36146 14.0274 6.16813 14.0188 5.52813 13.9908C5.02905 13.9743 4.53642 13.8729 4.07147 13.6908C3.26701 13.3777 2.63089 12.7413 2.31813 11.9368C2.143 11.4701 2.04854 10.9771 2.0388 10.4788C2.00146 9.84009 2.00146 9.63075 2.00146 8.00342C2.00146 6.35875 2.01013 6.16675 2.0388 5.53008C2.04876 5.03243 2.14321 4.54009 2.31813 4.07408C2.63055 3.26844 3.2677 2.63153 4.07346 2.31942C4.53923 2.14355 5.0317 2.04885 5.52947 2.03942C6.16613 2.00342 6.37546 2.00342 8.00146 2.00342C9.6548 2.00342 9.8448 2.01208 10.4748 2.03942C10.9739 2.04893 11.4676 2.14362 11.9348 2.31942C12.7403 2.63189 13.3774 3.26867 13.6901 4.07408C13.8682 4.54688 13.9632 5.04692 13.9708 5.55208C14.0081 6.19075 14.0081 6.39942 14.0081 8.02608C14.0081 9.65275 13.9988 9.86609 13.9708 10.4974C13.9609 10.9962 13.8662 11.4897 13.6908 11.9568C13.3772 12.7619 12.7402 13.3985 11.9348 13.7114C11.4683 13.8862 10.9755 13.9807 10.4775 13.9908C9.8408 14.0274 9.63213 14.0274 8.00146 14.0274ZM7.9788 3.05875C6.34813 3.05875 6.1788 3.06675 5.54213 3.09542C5.16212 3.10045 4.78578 3.17058 4.42946 3.30275C3.9033 3.50409 3.48695 3.91875 3.28346 4.44408C3.15027 4.80428 3.08014 5.18474 3.07613 5.56875C3.0408 6.21475 3.0408 6.38408 3.0408 8.00342C3.0408 9.60342 3.0468 9.79742 3.07613 10.4394C3.0821 10.8196 3.1522 11.196 3.28346 11.5528C3.48725 12.0777 3.90353 12.4921 4.42946 12.6934C4.78554 12.8265 5.16203 12.8966 5.54213 12.9008C6.18747 12.9381 6.35747 12.9381 7.9788 12.9381C9.61413 12.9381 9.78346 12.9301 10.4148 12.9008C10.7951 12.8961 11.1717 12.826 11.5281 12.6934C12.0511 12.4903 12.4647 12.0769 12.6681 11.5541C12.8011 11.1936 12.8712 10.813 12.8755 10.4288H12.8828C12.9115 9.79142 12.9115 9.62142 12.9115 7.99275C12.9115 6.36408 12.9041 6.19275 12.8755 5.55608C12.8695 5.17639 12.7994 4.80043 12.6681 4.44408C12.4652 3.92047 12.0515 3.50628 11.5281 3.30275C11.1718 3.16991 10.7951 3.09977 10.4148 3.09542C9.77013 3.05875 9.60147 3.05875 7.9788 3.05875ZM8.00146 11.0828C6.75479 11.0836 5.63041 10.3332 5.15271 9.18172C4.675 8.0302 4.93807 6.70431 5.81922 5.82239C6.70037 4.94048 8.02604 4.67627 9.17797 5.15297C10.3299 5.62968 11.0812 6.75341 11.0815 8.00008C11.0796 9.70079 9.70217 11.0794 8.00146 11.0828ZM8.00146 5.99875C6.8969 5.99875 6.00146 6.89418 6.00146 7.99875C6.00146 9.10332 6.8969 9.99875 8.00146 9.99875C9.10603 9.99875 10.0015 9.10332 10.0015 7.99875C9.9989 6.89525 9.10497 6.00132 8.00146 5.99875ZM11.2015 5.52342C10.8051 5.52195 10.4847 5.19981 10.4855 4.80342C10.4862 4.40704 10.8077 4.08609 11.2041 4.08609C11.6005 4.08609 11.9221 4.40703 11.9228 4.80342C11.923 4.99466 11.847 5.1781 11.7116 5.3132C11.5763 5.44831 11.3927 5.52395 11.2015 5.52342Z" fill="#0780AF"/>
</svg>
