<svg width="16" height="16" viewBox="0 0 16 16" fill="none" xmlns="http://www.w3.org/2000/svg">
<path fill-rule="evenodd" clip-rule="evenodd" d="M12.7241 3.28035C11.4707 2.02549 9.80382 1.33411 8.02799 1.33337C4.36871 1.33337 1.39059 4.31141 1.38912 7.97167C1.38863 9.14173 1.69429 10.2839 2.27528 11.2907L1.33344 14.7308L4.8528 13.8076C5.82253 14.3366 6.91426 14.6154 8.02529 14.6157H8.02807C11.6869 14.6157 14.6654 11.6374 14.6668 7.97698C14.6675 6.20303 13.9776 4.53514 12.7241 3.28035ZM8.02799 13.4945H8.0257C7.03561 13.4941 6.06457 13.228 5.21725 12.7254L5.01585 12.6057L2.92741 13.1536L3.48484 11.1174L3.3536 10.9087C2.80123 10.0301 2.50955 9.01466 2.51005 7.97207C2.51119 4.92977 4.98658 2.45462 8.03019 2.45462C9.50404 2.45512 10.8895 3.02981 11.9313 4.0728C12.973 5.1158 13.5464 6.50215 13.5459 7.97657C13.5446 11.0191 11.0694 13.4945 8.02799 13.4945V13.4945ZM11.0547 9.36186C10.8888 9.27878 10.0733 8.87761 9.92116 8.82217C9.76923 8.76681 9.65851 8.73925 9.54804 8.90525C9.4374 9.07125 9.11955 9.44494 9.02274 9.55558C8.92592 9.6663 8.82927 9.6802 8.66335 9.59712C8.49744 9.51412 7.96298 9.33889 7.32933 8.77376C6.83625 8.33391 6.50336 7.79071 6.40654 7.62471C6.30989 7.45855 6.40572 7.37743 6.47932 7.28618C6.65889 7.06318 6.8387 6.8294 6.89398 6.71876C6.94934 6.60804 6.92162 6.51115 6.88008 6.42815C6.8387 6.34515 6.50695 5.52866 6.36876 5.19642C6.234 4.8731 6.09736 4.91676 5.99547 4.91169C5.89882 4.90687 5.78818 4.90589 5.67755 4.90589C5.56699 4.90589 5.38726 4.94735 5.23516 5.11351C5.08315 5.27958 4.65467 5.68084 4.65467 6.49733C4.65467 7.31381 5.24906 8.10258 5.33198 8.2133C5.4149 8.32402 6.50172 9.99952 8.16569 10.718C8.56146 10.889 8.8704 10.991 9.11138 11.0675C9.50879 11.1937 9.8703 11.1759 10.1562 11.1332C10.4749 11.0855 11.1375 10.7319 11.2759 10.3444C11.4141 9.95691 11.4141 9.62484 11.3725 9.55558C11.3311 9.4864 11.2205 9.44494 11.0547 9.36186V9.36186Z" fill="#0780AF"/>
</svg>
