<svg width="16" height="16" viewBox="0 0 16 16" fill="none" xmlns="http://www.w3.org/2000/svg">
<path fill-rule="evenodd" clip-rule="evenodd" d="M13.3146 2.69035C11.9045 1.27863 10.0292 0.500828 8.03143 0.5C3.91475 0.5 0.564364 3.85029 0.562708 7.96808C0.562156 9.28441 0.906026 10.5694 1.55964 11.702L0.500061 15.5721L4.45935 14.5335C5.55029 15.1286 6.77849 15.4422 8.0284 15.4426H8.03152C12.1477 15.4426 15.4985 12.092 15.5001 7.97406C15.5009 5.97836 14.7247 4.10198 13.3146 2.69035ZM8.03143 14.1813H8.02885C6.915 14.1808 5.82259 13.8815 4.86936 13.316L4.64278 13.1814L2.29328 13.7978L2.9204 11.507L2.77275 11.2722C2.15133 10.2838 1.8232 9.14145 1.82375 7.96854C1.82504 4.54594 4.60985 1.76141 8.03391 1.76141C9.692 1.76196 11.2506 2.40849 12.4226 3.58186C13.5946 4.75523 14.2397 6.31487 14.2391 7.9736C14.2376 11.3965 11.453 14.1813 8.03143 14.1813ZM11.4365 9.53205C11.2499 9.43859 10.3324 8.98727 10.1613 8.9249C9.99033 8.86262 9.86577 8.83162 9.74149 9.01836C9.61702 9.20511 9.25944 9.62552 9.15053 9.74998C9.0416 9.87454 8.93287 9.89018 8.74622 9.79671C8.55956 9.70334 7.9583 9.5062 7.24544 8.87044C6.69073 8.37561 6.31622 7.7645 6.2073 7.57775C6.09857 7.39082 6.20638 7.29957 6.28918 7.1969C6.49119 6.94604 6.69349 6.68303 6.75567 6.55856C6.81795 6.434 6.78677 6.32499 6.74003 6.23162C6.69349 6.13825 6.32027 5.2197 6.1648 4.84593C6.0132 4.48219 5.85948 4.53131 5.74485 4.52561C5.63612 4.52018 5.51165 4.51908 5.38719 4.51908C5.26281 4.51908 5.06061 4.56572 4.8895 4.75265C4.71849 4.93949 4.23645 5.3909 4.23645 6.30945C4.23645 7.228 4.90514 8.11536 4.99842 8.23992C5.0917 8.36448 6.31438 10.2494 8.18635 11.0577C8.63159 11.2501 8.97914 11.3648 9.25025 11.4508C9.69733 11.5929 10.104 11.5728 10.4256 11.5248C10.7842 11.4712 11.5296 11.0733 11.6853 10.6374C11.8408 10.2015 11.8408 9.8279 11.794 9.74998C11.7475 9.67216 11.623 9.62552 11.4365 9.53205Z" fill="#9B9B9B"/>
</svg>
