<svg width="16" height="16" viewBox="0 0 16 16" fill="none" xmlns="http://www.w3.org/2000/svg">
<path d="M8.00423 12.6746H7.99089C7.94956 12.6746 3.81423 12.6666 2.77089 12.3833C2.19717 12.2287 1.74913 11.7804 1.59489 11.2066C1.40728 10.1482 1.31668 9.07482 1.32423 7.99992C1.31938 6.92326 1.41243 5.84839 1.60223 4.78859C1.7607 4.21426 2.20678 3.76388 2.77956 3.59992C3.79423 3.33325 7.81556 3.33325 7.98623 3.33325H8.00023C8.04223 3.33325 12.1882 3.34125 13.2209 3.62459C13.7934 3.77992 14.2405 4.22732 14.3956 4.79992C14.5891 5.86228 14.68 6.94081 14.6669 8.02059C14.6716 9.09594 14.5783 10.1695 14.3882 11.2279C14.232 11.801 13.7837 12.2483 13.2102 12.4033C12.1969 12.6719 8.17489 12.6746 8.00423 12.6746ZM6.67089 6.00325L6.66756 10.0033L10.1422 8.00325L6.67089 6.00325Z" fill="#0780AF"/>
</svg>
